<mxfile host="app.diagrams.net" modified="2022-08-07T22:40:22.744Z" agent="5.0 (Macintosh; Intel Mac OS X 10_15_7) AppleWebKit/537.36 (KHTML, like Gecko) Chrome/103.0.0.0 Safari/537.36" etag="GD45Ybeq9SzGohIxUuCu" version="20.2.3" type="github">
  <diagram id="3RvN6l47yJ_g0SNBJMLY" name="Page-1">
    <mxGraphModel dx="1426" dy="771" grid="1" gridSize="10" guides="1" tooltips="1" connect="1" arrows="1" fold="1" page="1" pageScale="1" pageWidth="850" pageHeight="1100" math="0" shadow="0">
      <root>
        <mxCell id="0" />
        <mxCell id="1" parent="0" />
        <mxCell id="GRtJI2fDkpzWtobgYo_h-1" value="Local Jenkins on personal Laptop" style="rounded=0;whiteSpace=wrap;html=1;" vertex="1" parent="1">
          <mxGeometry x="40" y="330" width="120" height="60" as="geometry" />
        </mxCell>
        <mxCell id="GRtJI2fDkpzWtobgYo_h-2" value="Terraform and Ansible Code for Pipeline at Azure" style="rounded=0;whiteSpace=wrap;html=1;" vertex="1" parent="1">
          <mxGeometry x="40" y="89" width="120" height="60" as="geometry" />
        </mxCell>
        <mxCell id="GRtJI2fDkpzWtobgYo_h-3" value="Create Jenkins environment on AKS" style="whiteSpace=wrap;html=1;aspect=fixed;" vertex="1" parent="1">
          <mxGeometry x="269" y="173" width="80" height="80" as="geometry" />
        </mxCell>
        <mxCell id="GRtJI2fDkpzWtobgYo_h-5" value="state on Azure Blob" style="rounded=1;whiteSpace=wrap;html=1;" vertex="1" parent="1">
          <mxGeometry x="254" y="297" width="120" height="60" as="geometry" />
        </mxCell>
        <mxCell id="GRtJI2fDkpzWtobgYo_h-8" value="" style="endArrow=none;html=1;rounded=0;" edge="1" parent="1">
          <mxGeometry width="50" height="50" relative="1" as="geometry">
            <mxPoint x="200" y="469" as="sourcePoint" />
            <mxPoint x="200" y="69" as="targetPoint" />
          </mxGeometry>
        </mxCell>
        <mxCell id="GRtJI2fDkpzWtobgYo_h-9" value="" style="endArrow=none;html=1;rounded=0;" edge="1" parent="1">
          <mxGeometry width="50" height="50" relative="1" as="geometry">
            <mxPoint x="400" y="469" as="sourcePoint" />
            <mxPoint x="400" y="69" as="targetPoint" />
          </mxGeometry>
        </mxCell>
        <mxCell id="GRtJI2fDkpzWtobgYo_h-10" value="Azure" style="text;html=1;strokeColor=none;fillColor=none;align=center;verticalAlign=middle;whiteSpace=wrap;rounded=0;" vertex="1" parent="1">
          <mxGeometry x="292" y="34" width="60" height="30" as="geometry" />
        </mxCell>
        <mxCell id="GRtJI2fDkpzWtobgYo_h-11" value="AWS" style="text;html=1;strokeColor=none;fillColor=none;align=center;verticalAlign=middle;whiteSpace=wrap;rounded=0;" vertex="1" parent="1">
          <mxGeometry x="590" y="9" width="60" height="30" as="geometry" />
        </mxCell>
        <mxCell id="GRtJI2fDkpzWtobgYo_h-12" value="&lt;ul&gt;&lt;li&gt;Network&lt;/li&gt;&lt;li&gt;IAM&lt;/li&gt;&lt;/ul&gt;" style="text;html=1;strokeColor=none;fillColor=none;align=left;verticalAlign=middle;whiteSpace=wrap;rounded=0;" vertex="1" parent="1">
          <mxGeometry x="400" y="149" width="96" height="40" as="geometry" />
        </mxCell>
        <mxCell id="GRtJI2fDkpzWtobgYo_h-13" value="" style="endArrow=none;html=1;rounded=0;" edge="1" parent="1">
          <mxGeometry width="50" height="50" relative="1" as="geometry">
            <mxPoint x="20" y="240" as="sourcePoint" />
            <mxPoint x="200" y="240" as="targetPoint" />
          </mxGeometry>
        </mxCell>
        <mxCell id="GRtJI2fDkpzWtobgYo_h-16" value="git Repo" style="text;html=1;strokeColor=none;fillColor=none;align=center;verticalAlign=middle;whiteSpace=wrap;rounded=0;" vertex="1" parent="1">
          <mxGeometry x="68" y="39" width="60" height="30" as="geometry" />
        </mxCell>
        <mxCell id="GRtJI2fDkpzWtobgYo_h-17" value="Build Factory" style="text;html=1;strokeColor=none;fillColor=none;align=center;verticalAlign=middle;whiteSpace=wrap;rounded=0;" vertex="1" parent="1">
          <mxGeometry x="209" y="89" width="60" height="30" as="geometry" />
        </mxCell>
        <mxCell id="GRtJI2fDkpzWtobgYo_h-18" value="Resource Account" style="text;html=1;strokeColor=none;fillColor=none;align=center;verticalAlign=middle;whiteSpace=wrap;rounded=0;" vertex="1" parent="1">
          <mxGeometry x="530" y="50" width="110" height="30" as="geometry" />
        </mxCell>
        <mxCell id="GRtJI2fDkpzWtobgYo_h-19" value="Secure and Core Component" style="text;html=1;strokeColor=none;fillColor=none;align=center;verticalAlign=middle;whiteSpace=wrap;rounded=0;" vertex="1" parent="1">
          <mxGeometry x="410" y="80" width="60" height="30" as="geometry" />
        </mxCell>
        <mxCell id="GRtJI2fDkpzWtobgYo_h-20" value="Compute Scaling and LB" style="text;html=1;strokeColor=none;fillColor=none;align=center;verticalAlign=middle;whiteSpace=wrap;rounded=0;" vertex="1" parent="1">
          <mxGeometry x="510" y="119" width="150" height="30" as="geometry" />
        </mxCell>
        <mxCell id="GRtJI2fDkpzWtobgYo_h-21" value="Database - SQL and NOSQL" style="text;html=1;strokeColor=none;fillColor=none;align=center;verticalAlign=middle;whiteSpace=wrap;rounded=0;" vertex="1" parent="1">
          <mxGeometry x="512" y="159" width="178" height="30" as="geometry" />
        </mxCell>
        <mxCell id="GRtJI2fDkpzWtobgYo_h-22" value="Storage" style="text;html=1;strokeColor=none;fillColor=none;align=center;verticalAlign=middle;whiteSpace=wrap;rounded=0;" vertex="1" parent="1">
          <mxGeometry x="512" y="190" width="178" height="30" as="geometry" />
        </mxCell>
        <mxCell id="GRtJI2fDkpzWtobgYo_h-24" value="Log and Monitoring Account" style="text;html=1;strokeColor=none;fillColor=none;align=center;verticalAlign=middle;whiteSpace=wrap;rounded=0;" vertex="1" parent="1">
          <mxGeometry x="709" y="50" width="110" height="30" as="geometry" />
        </mxCell>
        <mxCell id="GRtJI2fDkpzWtobgYo_h-25" value="App Service, Containers and Serverless" style="text;html=1;strokeColor=none;fillColor=none;align=center;verticalAlign=middle;whiteSpace=wrap;rounded=0;" vertex="1" parent="1">
          <mxGeometry x="520" y="220" width="150" height="30" as="geometry" />
        </mxCell>
      </root>
    </mxGraphModel>
  </diagram>
</mxfile>
